<svg width="17" height="17" viewBox="0 0 17 17" fill="none" xmlns="http://www.w3.org/2000/svg">
<path d="M16.5375 8.7C16.5375 13.1953 12.8625 16.8375 8.4 16.8375C6.46406 16.8703 4.65937 16.1812 3.28125 15.0656C2.92031 14.7703 2.8875 14.2125 3.21562 13.8844L3.57656 13.5234C3.87187 13.2281 4.33125 13.1953 4.62656 13.4578C5.67656 14.2781 6.95625 14.7375 8.4 14.7375C11.7141 14.7375 14.4375 12.0469 14.4375 8.7C14.4375 5.38594 11.7141 2.6625 8.4 2.6625C6.79219 2.6625 5.31562 3.28594 4.23281 4.30313L5.90625 5.97656C6.23437 6.30469 6.00469 6.8625 5.54531 6.8625H0.7875C0.492187 6.8625 0.2625 6.63281 0.2625 6.3375V1.57969C0.2625 1.12031 0.820312 0.890626 1.14844 1.21875L2.75625 2.82656C4.23281 1.44844 6.20156 0.562501 8.4 0.562501C12.8625 0.562501 16.5047 4.20469 16.5375 8.7ZM10.5984 11.2922C10.3031 11.6203 9.81094 11.6859 9.48281 11.4234L7.35 9.75V5.2875C7.35 4.86094 7.67812 4.5 8.1375 4.5H8.6625C9.08906 4.5 9.45 4.86094 9.45 5.2875V8.73281L10.7625 9.78281C11.1234 10.0453 11.1891 10.5375 10.8937 10.8656L10.5984 11.2922Z" fill="black"/>
</svg>
