<svg width="15" height="18" viewBox="0 0 15 18" fill="none" xmlns="http://www.w3.org/2000/svg">
<path d="M14.7 12.1125C14.7 12.375 14.5687 12.6047 14.4047 12.7359C14.2406 13.2281 14.2406 14.6719 14.4047 15.1969C14.5687 15.3281 14.7 15.5578 14.7 15.7875V16.3125C14.7 16.7719 14.3391 17.1 13.9125 17.1H3.15C1.41094 17.1 0 15.6891 0 13.95V3.45C0 1.71094 1.41094 0.300001 3.15 0.300001H13.9125C14.3391 0.300001 14.7 0.660938 14.7 1.0875V12.1125ZM4.2 4.69688V5.35313C4.2 5.48438 4.26562 5.55 4.39687 5.55H11.3531C11.4516 5.55 11.55 5.48438 11.55 5.35313V4.69688C11.55 4.59844 11.4516 4.5 11.3531 4.5H4.39687C4.26562 4.5 4.2 4.59844 4.2 4.69688ZM4.2 6.79688V7.45313C4.2 7.58438 4.26562 7.65 4.39687 7.65H11.3531C11.4516 7.65 11.55 7.58438 11.55 7.45313V6.79688C11.55 6.69844 11.4516 6.6 11.3531 6.6H4.39687C4.26562 6.6 4.2 6.69844 4.2 6.79688ZM12.5016 15C12.4359 14.4422 12.4359 13.4906 12.5016 12.9H3.15C2.55937 12.9 2.1 13.3922 2.1 13.95C2.1 14.5406 2.55937 15 3.15 15H12.5016Z" fill="black"/>
</svg>
