<svg width="15" height="18" viewBox="0 0 15 18" fill="none" xmlns="http://www.w3.org/2000/svg">
<path d="M14.3062 16.05C14.5031 16.05 14.7 16.2469 14.7 16.4437V17.1H0V16.4437C0 16.2469 0.164062 16.05 0.39375 16.05H1.05V1.0875C1.05 0.660938 1.37812 0.300001 1.8375 0.300001H12.8625C13.2891 0.300001 13.65 0.660938 13.65 1.0875V16.05H14.3062ZM4.2 2.79375V4.10625C4.2 4.33594 4.36406 4.5 4.59375 4.5H5.90625C6.10312 4.5 6.3 4.33594 6.3 4.10625V2.79375C6.3 2.59688 6.10312 2.4 5.90625 2.4H4.59375C4.36406 2.4 4.2 2.59688 4.2 2.79375ZM4.2 5.94375V7.25625C4.2 7.48594 4.36406 7.65 4.59375 7.65H5.90625C6.10312 7.65 6.3 7.48594 6.3 7.25625V5.94375C6.3 5.74688 6.10312 5.55 5.90625 5.55H4.59375C4.36406 5.55 4.2 5.74688 4.2 5.94375ZM5.90625 10.8C6.10312 10.8 6.3 10.6359 6.3 10.4063V9.09375C6.3 8.89688 6.10312 8.7 5.90625 8.7H4.59375C4.36406 8.7 4.2 8.89688 4.2 9.09375V10.4063C4.2 10.6359 4.36406 10.8 4.59375 10.8H5.90625ZM8.4 16.05V13.2938C8.4 13.0969 8.20312 12.9 8.00625 12.9H6.69375C6.46406 12.9 6.3 13.0969 6.3 13.2938V16.05H8.4ZM10.5 10.4063V9.09375C10.5 8.89688 10.3031 8.7 10.1062 8.7H8.79375C8.56406 8.7 8.4 8.89688 8.4 9.09375V10.4063C8.4 10.6359 8.56406 10.8 8.79375 10.8H10.1062C10.3031 10.8 10.5 10.6359 10.5 10.4063ZM10.5 7.25625V5.94375C10.5 5.74688 10.3031 5.55 10.1062 5.55H8.79375C8.56406 5.55 8.4 5.74688 8.4 5.94375V7.25625C8.4 7.48594 8.56406 7.65 8.79375 7.65H10.1062C10.3031 7.65 10.5 7.48594 10.5 7.25625ZM10.5 4.10625V2.79375C10.5 2.59688 10.3031 2.4 10.1062 2.4H8.79375C8.56406 2.4 8.4 2.59688 8.4 2.79375V4.10625C8.4 4.33594 8.56406 4.5 8.79375 4.5H10.1062C10.3031 4.5 10.5 4.33594 10.5 4.10625Z" fill="black"/>
</svg>
