<svg width="19" height="16" viewBox="0 0 19 16" fill="none" xmlns="http://www.w3.org/2000/svg">
<path d="M17.325 0.350001C18.1781 0.350001 18.9 1.07188 18.9 1.925V2.45H0V1.925C0 1.07188 0.689062 0.350001 1.575 0.350001H17.325ZM0 13.475V3.5H18.9V13.475C18.9 14.3609 18.1781 15.05 17.325 15.05H1.575C0.689062 15.05 0 14.3609 0 13.475ZM11.55 5.8625V6.3875C11.55 6.55156 11.6484 6.65 11.8125 6.65H16.5375C16.6687 6.65 16.8 6.55156 16.8 6.3875V5.8625C16.8 5.73125 16.6687 5.6 16.5375 5.6H11.8125C11.6484 5.6 11.55 5.73125 11.55 5.8625ZM11.55 7.9625V8.4875C11.55 8.65156 11.6484 8.75 11.8125 8.75H16.5375C16.6687 8.75 16.8 8.65156 16.8 8.4875V7.9625C16.8 7.83125 16.6687 7.7 16.5375 7.7H11.8125C11.6484 7.7 11.55 7.83125 11.55 7.9625ZM11.55 10.0625V10.5875C11.55 10.7516 11.6484 10.85 11.8125 10.85H16.5375C16.6687 10.85 16.8 10.7516 16.8 10.5875V10.0625C16.8 9.93125 16.6687 9.8 16.5375 9.8H11.8125C11.6484 9.8 11.55 9.93125 11.55 10.0625ZM5.775 5.6C4.59375 5.6 3.675 6.55156 3.675 7.7C3.675 8.88125 4.59375 9.8 5.775 9.8C6.92344 9.8 7.875 8.88125 7.875 7.7C7.875 6.55156 6.92344 5.6 5.775 5.6ZM2.19844 12.3266C2.06719 12.6219 2.3625 12.95 2.69062 12.95H8.82656C9.15469 12.95 9.45 12.6547 9.31875 12.3266C9.05625 11.4734 8.26875 10.85 7.35 10.85H7.05469C6.66094 11.0469 6.23437 11.1125 5.775 11.1125C5.28281 11.1125 4.85625 11.0469 4.4625 10.85H4.2C3.24844 10.85 2.46094 11.4734 2.19844 12.3266Z" fill="black"/>
</svg>
