<svg width="19" height="18" viewBox="0 0 19 18" fill="none" xmlns="http://www.w3.org/2000/svg">
<path d="M18.508 7.0625C18.6955 7.28125 18.6955 7.59375 18.508 7.78125L15.6642 10.625C15.4767 10.8125 15.1642 10.8125 14.9767 10.625L14.258 9.90625C14.0705 9.71875 14.0705 9.40625 14.258 9.1875L14.6017 8.84375L13.6955 7.9375C13.0392 8.125 12.3205 7.9375 11.7892 7.4375L10.258 5.90625C9.88299 5.53125 9.66424 5 9.66424 4.46875V3.90625L6.82049 2.46875C8.78924 0.53125 11.9455 0.53125 13.9142 2.46875L15.3205 3.90625C15.8517 4.40625 16.008 5.15625 15.8205 5.8125L16.7267 6.71875L17.1017 6.375C17.2892 6.1875 17.6017 6.1875 17.7892 6.375L18.508 7.0625ZM9.53924 6.59375L11.0705 8.125C11.1955 8.25 11.3205 8.34375 11.4455 8.4375L4.00799 16.4062C3.25799 17.1875 1.97674 17.2188 1.22674 16.4375C0.445486 15.6875 0.476736 14.4062 1.25799 13.6562L9.22674 6.21875C9.32049 6.34375 9.41424 6.5 9.53924 6.59375Z" fill="#1351B4"/>
</svg>
