<svg width="15" height="18" viewBox="0 0 15 18" fill="none" xmlns="http://www.w3.org/2000/svg">
<path d="M7.35 8.7C5.02031 8.7 3.15 6.82969 3.15 4.5C3.15 2.20313 5.02031 0.300001 7.35 0.300001C9.64687 0.300001 11.55 2.20313 11.55 4.5C11.55 6.82969 9.64687 8.7 7.35 8.7ZM10.2703 9.75C12.6984 9.75 14.7 11.7516 14.7 14.1797V15.525C14.7 16.4109 13.9781 17.1 13.125 17.1H1.575C0.689062 17.1 0 16.4109 0 15.525V14.1797C0 11.7516 1.96875 9.75 4.39687 9.75H4.95469C5.67656 10.1109 6.49687 10.275 7.35 10.275C8.20312 10.275 8.99062 10.1109 9.7125 9.75H10.2703Z" fill="black"/>
</svg>
