<svg width="21" height="18" viewBox="0 0 21 18" fill="none" xmlns="http://www.w3.org/2000/svg">
<path d="M20.475 13.95C20.7375 13.95 21 14.2125 21 14.475V15C21 16.1812 20.0484 17.1 18.9 17.1H2.1C0.91875 17.1 0 16.1812 0 15V14.475C0 14.2125 0.229687 13.95 0.525 13.95H8.36719C8.33437 14.4422 8.82656 15 9.45 15H11.4187C12.0094 15 12.4687 14.6063 12.5016 13.95H20.475ZM18.9 1.875V12.9H2.1V1.875C2.1 1.02188 2.78906 0.300001 3.675 0.300001H17.325C18.1781 0.300001 18.9 1.02188 18.9 1.875ZM16.8 10.8V2.4H4.2V10.8H16.8Z" fill="black"/>
</svg>
