<svg width="13" height="16" viewBox="0 0 13 16" fill="none" xmlns="http://www.w3.org/2000/svg">
<path d="M12.6642 3.5V14.5C12.6642 15.3438 11.9767 16 11.1642 16H2.16424C1.32049 16 0.664236 15.3438 0.664236 14.5V3.5C0.664236 2.6875 1.32049 2 2.16424 2H4.66424C4.66424 0.90625 5.53924 0 6.66424 0C7.75799 0 8.66424 0.90625 8.66424 2H11.1642C11.9767 2 12.6642 2.6875 12.6642 3.5ZM6.66424 1.25C6.22674 1.25 5.91424 1.59375 5.91424 2C5.91424 2.4375 6.22674 2.75 6.66424 2.75C7.07049 2.75 7.41424 2.4375 7.41424 2C7.41424 1.59375 7.07049 1.25 6.66424 1.25ZM9.66424 4.8125V4.1875C9.66424 4.09375 9.57049 4 9.47674 4H3.85174C3.72674 4 3.66424 4.09375 3.66424 4.1875V4.8125C3.66424 4.9375 3.72674 5 3.85174 5H9.47674C9.57049 5 9.66424 4.9375 9.66424 4.8125Z" fill="#1351B4"/>
</svg>
